:FULLY-SPECIFIED
:FORCE-ALL-JOINTS-BE-3DOF
:DEGREES
917
root 2.69241 16.0654 32.3787 2.79076 10.1402 363.396
lfemur -10.6932 4.34213 -3.76974
ltibia 23.3625 0 0
lfoot -8.58803 -32.8968 0
ltoes 16.0208 0 0
rfemur -19.4974 -4.14116 -9.87929
rtibia 50.4926 0 0
rfoot 2.5263 -16.0946 0
rtoes -14.5228 0 0
lowerback -1.35314 -0.887528 -2.99679
upperback -0.969514 -1.11279 -5.51537
thorax -0.277914 -0.551628 -4.03279
lowerneck -6.99888 -4.12242 -0.959605
upperneck 4.24251 -5.76937 5.75842
head 2.79887 -2.69201 1.75907
lclavicle 1.75488e-16 1.19728e-14 0
lhumerus -53.2671 -37.4798 108.25
lradius 58.959 0 0
lwrist 15.5961 0 0
lhand 39.5204 24.2038 0
lfingers 7.12502 0 0
lthumb 61.7947 34.3861 0
rclavicle 1.75488e-16 1.19728e-14 0
rhumerus -56.3272 43.8203 -89.5289
rradius 122.749 0 0
rwrist -5.62457 0 0
rhand 26.5075 -3.46996 0
rfingers 7.12502 0 0
rthumb 50.77 -746.6 0
918
root 2.62275 16.0422 32.4231 3.00907 9.21522 363.612
lfemur -9.23919 2.54286 -2.72298
ltibia 20.9084 0 0
lfoot -8.09941 -35.4456 0
ltoes 16.1129 0 0
rfemur -19.6665 -3.71828 -10.0725
rtibia 48.7155 0 0
rfoot 2.43739 -14.861 0
rtoes -19.7122 0 0
lowerback -1.65865 -0.82421 -2.9882
upperback -1.03559 -1.0173 -5.791
thorax -0.17458 -0.505429 -4.32679
lowerneck -7.01011 -3.85052 -0.81696
upperneck 4.2188 -5.42073 5.80682
head 2.77708 -2.51505 1.76764
lclavicle -1.74863e-17 1.0543e-14 0
lhumerus -53.223 -37.5651 107.874
lradius 58.8009 0 0
lwrist 15.9207 0 0
lhand 40.3003 24.7692 0
lfingers 7.12502 0 0
lthumb 62.4561 34.218 0
rclavicle -1.74863e-17 1.0543e-14 0
rhumerus -57.0075 45.3605 -88.0157
rradius 122.525 0 0
rwrist -5.49916 0 0
rhand 26.6836 -4.12075 0
rfingers 7.12502 0 0
rthumb 50.9242 -747.078 0
919
root 2.55309 16.0189 32.4674 3.2211 8.31378 363.818
lfemur -7.82353 0.829502 -1.71714
ltibia 18.5338 0 0
lfoot -7.67641 -37.822 0
ltoes 16.0993 0 0
rfemur -19.8684 -3.34549 -10.2388
rtibia 47.0368 0 0
rfoot 2.31143 -13.6356 0
rtoes -24.7003 0 0
lowerback -1.94636 -0.763882 -2.97368
upperback -1.09785 -0.92681 -6.05513
thorax -0.0771696 -0.461748 -4.61188
lowerneck -7.02037 -3.58271 -0.670089
upperneck 4.1901 -5.07728 5.8477
head 2.75373 -2.341 1.77269
lclavicle -2.38267e-16 9.07339e-15 0
lhumerus -53.1876 -37.6603 107.519
lradius 58.6443 0 0
lwrist 16.2499 0 0
lhand 41.0398 25.3038 0
lfingers 7.12502 0 0
lthumb 63.0836 34.0592 0
rclavicle -2.38267e-16 9.07339e-15 0
rhumerus -57.5301 46.6397 -86.3883
rradius 122.106 0 0
rwrist -5.40748 0 0
rhand 26.693 -4.84971 0
rfingers 7.12502 0 0
rthumb 50.9193 -747.658 0
920
root 2.48343 15.9957 32.5118 3.42747 7.44375 364.014
lfemur -6.46281 -0.774097 -0.763234
ltibia 16.2668 0 0
lfoot -7.3317 -39.9876 0
ltoes 15.968 0 0
rfemur -20.0913 -3.0287 -10.3838
rtibia 45.4736 0 0
rfoot 2.13961 -12.4404 0
rtoes -29.4158 0 0
lowerback -2.21516 -0.706744 -2.95151
upperback -1.15664 -0.841593 -6.30453
thorax 0.0131631 -0.42071 -4.88585
lowerneck -7.02923 -3.32208 -0.520226
upperneck 4.15576 -4.74292 5.87975
head 2.72875 -2.17189 1.77381
lclavicle -4.81573e-16 7.57447e-15 0
lhumerus -53.1673 -37.7652 107.197
lradius 58.4904 0 0
lwrist 16.5808 0 0
lhand 41.7298 25.8016 0
lfingers 7.12502 0 0
lthumb 63.6694 33.9128 0
rclavicle -4.81573e-16 7.57447e-15 0
rhumerus -57.868 47.6248 -84.653
rradius 121.478 0 0
rwrist -5.35117 0 0
rhand 26.5282 -5.65026 0
rfingers 7.12502 0 0
rthumb 50.7485 -748.337 0
921
root 2.41377 15.9725 32.5562 3.62877 6.61301 364.197
lfemur -5.1736 -2.2441 0.127699
ltibia 14.1354 0 0
lfoot -7.07794 -41.9037 0
ltoes 15.707 0 0
rfemur -20.3235 -2.77379 -10.5136
rtibia 44.0425 0 0
rfoot 1.91311 -11.2974 0
rtoes -33.787 0 0
lowerback -2.46389 -0.652995 -2.92
upperback -1.21231 -0.761907 -6.53598
thorax 0.0952652 -0.38244 -5.14646
lowerneck -7.03629 -3.07173 -0.368609
upperneck 4.11515 -4.42158 5.90167
head 2.70205 -2.00975 1.7706
lclavicle -7.42125e-16 6.05648e-15 0
lhumerus -53.1688 -37.8798 106.919
lradius 58.3404 0 0
lwrist 16.9103 0 0
lhand 42.361 26.2563 0
lfingers 7.12502 0 0
lthumb 64.2059 33.7818 0
rclavicle -7.42125e-16 6.05648e-15 0
rhumerus -57.9941 48.2827 -82.8163
rradius 120.627 0 0
rwrist -5.33183 0 0
rhand 26.1816 -6.51583 0
rfingers 7.12502 0 0
rthumb 50.4046 -749.11 0
922
root 2.34411 15.9493 32.6006 3.82561 5.82943 364.365
lfemur -3.97246 -3.55665 0.944636
ltibia 12.1677 0 0
lfoot -6.92779 -43.5317 0
ltoes 15.3044 0 0
rfemur -20.5533 -2.58665 -10.634
rtibia 42.7606 0 0
rfoot 1.6231 -10.2285 0
rtoes -37.7427 0 0
lowerback -2.69143 -0.602833 -2.87744
upperback -1.26523 -0.688011 -6.74625
thorax 0.167984 -0.347062 -5.3915
lowerneck -7.04112 -2.83476 -0.216473
upperneck 4.06763 -4.11717 5.91215
head 2.67356 -1.85663 1.76261
lclavicle -1.01464e-15 4.52974e-15 0
lhumerus -53.1988 -38.0042 106.697
lradius 58.1953 0 0
lwrist 17.2353 0 0
lhand 42.9245 26.6617 0
lfingers 7.12502 0 0
lthumb 64.6856 33.6693 0
rclavicle -1.01464e-15 4.52974e-15 0
rhumerus -57.8812 48.5804 -80.8847
rradius 119.538 0 0
rwrist -5.3511 0 0
rhand 25.6456 -7.43985 0
rfingers 7.12502 0 0
rthumb 49.8805 -749.976 0
923
root 2.27445 15.926 32.6449 4.0186 5.10089 364.516
lfemur -2.87596 -4.68792 1.67655
ltibia 10.3917 0 0
lfoot -6.89391 -44.8332 0
ltoes 14.7481 0 0
rfemur -20.769 -2.47319 -10.7508
rtibia 41.6446 0 0
rfoot 1.26077 -9.25585 0
rtoes -41.2111 0 0
lowerback -2.89663 -0.556459 -2.82214
upperback -1.31572 -0.620164 -6.93213
thorax 0.230166 -0.314702 -5.61876
lowerneck -7.04332 -2.61426 -0.065055
upperneck 4.01257 -3.83361 5.90988
head 2.64321 -1.71454 1.74946
lclavicle -1.29384e-15 3.00454e-15 0
lhumerus -53.2638 -38.1382 106.541
lradius 58.0564 0 0
lwrist 17.5529 0 0
lhand 43.411 27.0116 0
lfingers 7.12502 0 0
lthumb 65.1008 33.5785 0
rclavicle -1.29384e-15 3.00454e-15 0
rhumerus -57.5023 48.4847 -78.8645
rradius 118.199 0 0
rwrist -5.4106 0 0
rhand 24.9125 -8.41575 0
rfingers 7.12502 0 0
rthumb 49.1692 -750.93 0
924
root 2.20479 15.9028 32.6893 4.20834 4.43526 364.648
lfemur -1.90066 -5.61406 2.31241
ltibia 8.83535 0 0
lfoot -6.98896 -45.7697 0
ltoes 14.0262 0 0
rfemur -20.9589 -2.43929 -10.8699
rtibia 40.7115 0 0
rfoot 0.817287 -8.40135 0
rtoes -44.1209 0 0
lowerback -3.07836 -0.514072 -2.7524
upperback -1.36416 -0.558628 -7.09037
thorax 0.280658 -0.285486 -5.82599
lowerneck -7.04246 -2.41333 0.0844087
upperneck 3.94931 -3.5748 5.89355
head 2.6109 -1.58554 1.7307
lclavicle -1.57445e-15 1.4912e-15 0
lhumerus -53.3705 -38.2819 106.463
lradius 57.9247 0 0
lwrist 17.8599 0 0
lhand 43.8116 27.2999 0
lfingers 7.12502 0 0
lthumb 65.4438 33.5123 0
rclavicle -1.57445e-15 1.4912e-15 0
rhumerus -56.8303 47.9625 -76.7622
rradius 116.593 0 0
rwrist -5.51197 0 0
rhand 23.9747 -9.43696 0
rfingers 7.12502 0 0
rthumb 48.2637 -751.971 0
925
root 2.13513 15.8796 32.7337 4.39544 3.84042 364.759
lfemur -1.06315 -6.31122 2.8412
ltibia 7.52681 0 0
lfoot -7.2256 -46.3024 0
ltoes 13.1266 0 0
rfemur -21.1112 -2.49084 -10.9972
rtibia 39.9781 0 0
rfoot 0.283837 -7.68699 0
rtoes -46.4005 0 0
lowerback -3.23548 -0.47587 -2.6665
upperback -1.41089 -0.503662 -7.21775
thorax 0.318308 -0.259537 -6.011
lowerneck -7.03814 -2.23507 0.230682
upperneck 3.87724 -3.34467 5.86185
head 2.57656 -1.47165 1.70594
lclavicle -1.85118e-15 0 0
lhumerus -53.5254 -38.4352 106.474
lradius 57.8015 0 0
lwrist 18.1533 0 0
lhand 44.117 27.5203 0
lfingers 7.12502 0 0
lthumb 65.7072 33.474 0
rclavicle -1.85118e-15 0 0
rhumerus -55.8381 46.9807 -74.5842
rradius 114.708 0 0
rwrist -5.65682 0 0
rhand 22.8247 -10.4969 0
rfingers 7.12502 0 0
rthumb 47.1569 -753.094 0
